<svg xmlns="http://www.w3.org/2000/svg" xmlns:xlink="http://www.w3.org/1999/xlink" width="1240" height="494.2"><rect width="1240" height="494.2" rx="5" ry="5" class="a"/><svg y="0%" x="0%"><circle cx="20" cy="20" r="6" fill="#ff5f58"/><circle cx="40" cy="20" r="6" fill="#ffbd2e"/><circle cx="60" cy="20" r="6" fill="#18c132"/></svg><svg height="434.2" viewBox="0 0 120 43.42" width="1200" x="15" xmlns="http://www.w3.org/2000/svg" xmlns:xlink="http://www.w3.org/1999/xlink" y="50"><style>@keyframes p{0%{transform:translateX(-120px)}2.39%{transform:translateX(-240px)}4.46%{transform:translateX(-360px)}5.77%{transform:translateX(-480px)}6.38%{transform:translateX(-600px)}7.5%{transform:translateX(-720px)}8.66%{transform:translateX(-840px)}9.53%{transform:translateX(-960px)}10.6%{transform:translateX(-1080px)}11.15%{transform:translateX(-1200px)}12.88%{transform:translateX(-1320px)}13.62%{transform:translateX(-1440px)}14.65%{transform:translateX(-1560px)}15.57%{transform:translateX(-1680px)}16.47%{transform:translateX(-1800px)}17.55%{transform:translateX(-1920px)}18.63%{transform:translateX(-2040px)}19.4%{transform:translateX(-2160px)}21%{transform:translateX(-2280px)}22.1%{transform:translateX(-2400px)}23.4%{transform:translateX(-2520px)}27.23%{transform:translateX(-2640px)}29.22%{transform:translateX(-2760px)}29.41%{transform:translateX(-2880px)}30.22%{transform:translateX(-3000px)}30.29%{transform:translateX(-3240px)}30.89%{transform:translateX(-3480px)}58.33%{transform:translateX(-3600px)}62.73%{transform:translateX(-3720px)}64.79%{transform:translateX(-3840px)}65.95%{transform:translateX(-3960px)}71.94%{transform:translateX(-4080px)}72.41%{transform:translateX(-4200px)}72.92%{transform:translateX(-4320px)}73.19%{transform:translateX(-4440px)}73.74%{transform:translateX(-4560px)}74.53%{transform:translateX(-4680px)}75.5%{transform:translateX(-4800px)}76.1%{transform:translateX(-4920px)}76.65%{transform:translateX(-5040px)}77.07%{transform:translateX(-5160px)}77.18%{transform:translateX(-5280px)}79.39%{transform:translateX(-5640px)}82.99%{transform:translateX(-5760px)}83.05%{transform:translateX(-5880px)}83.84%{transform:translateX(-6000px)}83.85%{transform:translateX(-6240px)}83.91%{transform:translateX(-6480px)}84.46%{transform:translateX(-6720px)}97.01%{transform:translateX(-6840px)}97.91%{transform:translateX(-6960px)}98.43%{transform:translateX(-7080px)}99.12%{transform:translateX(-7200px)}to{transform:translateX(-7440px)}}.a{fill:#282d35}.f{fill:#b9bfca}.g{fill:#b9c0cb}.i,.j,.m{fill:#dbab79}.j,.m{font-weight:700}.m{fill:#e88388}</style><g font-size="1.67" font-family="Monaco,Consolas,Menlo,'Bitstream Vera Sans Mono','Powerline Symbols',monospace"><defs><symbol id="1"><text y="1.67" class="f">▶</text></symbol><symbol id="2"><text y="1.67" class="f">▶</text><text x="2.004" y="1.67" class="f">spectral</text></symbol><symbol id="3"><text y="1.67" class="f">▶</text><text x="2.004" y="1.67" class="f">spectral</text><text x="11.022" y="1.67" class="f">lint</text></symbol><symbol id="4"><text y="1.67" class="f">▶</text><text x="2.004" y="1.67" class="f">spectral</text><text x="11.022" y="1.67" class="f">lint</text><text x="16.032" y="1.67" class="f">petstore.yaml</text></symbol><symbol id="5"><text y="1.67" class="g">Adding</text><text x="7.014" y="1.67" class="g">OpenAPI</text><text x="15.03" y="1.67" class="g">3.x</text><text x="19.038" y="1.67" class="g">functions</text></symbol><symbol id="6"><text y="1.67" class="g">OpenAPI</text><text x="8.016" y="1.67" class="g">3.x</text><text x="12.024" y="1.67" class="g">detected</text></symbol><symbol id="7"><text y="1.67" fill="#b9c0cb" text-decoration="underline">petstore.yaml</text></symbol><symbol id="8"><text x="2.004" y="1.67" class="g">2:6</text><text x="8.016" y="1.67" class="i">warning</text><text x="17.034" y="1.67" class="g">info-contact</text><text x="40.08" y="1.67" class="g">Info</text><text x="45.09" y="1.67" class="g">object</text><text x="52.104" y="1.67" class="g">should</text><text x="59.118" y="1.67" class="g">contain</text><text x="67.134" y="1.67" class="g">`contact`</text><text x="77.154" y="1.67" class="g">object.</text></symbol><symbol id="9"><text x="2.004" y="1.67" class="g">2:6</text><text x="8.016" y="1.67" class="i">warning</text><text x="17.034" y="1.67" class="g">info-description</text><text x="40.08" y="1.67" class="g">OpenAPI</text><text x="48.096" y="1.67" class="g">object</text><text x="55.11" y="1.67" class="g">info</text><text x="60.12" y="1.67" class="g">`description`</text><text x="74.148" y="1.67" class="g">must</text><text x="79.158" y="1.67" class="g">be</text><text x="82.164" y="1.67" class="g">present</text><text x="90.18" y="1.67" class="g">and</text><text x="94.188" y="1.67" class="g">non-empty</text><text x="104.208" y="1.67" class="g">string.</text></symbol><symbol id="10"><text x="2.004" y="1.67" class="g">11:9</text><text x="8.016" y="1.67" class="i">warning</text><text x="17.034" y="1.67" class="g">operation-description</text><text x="40.08" y="1.67" class="g">Operation</text><text x="50.1" y="1.67" class="g">`description`</text><text x="64.128" y="1.67" class="g">must</text><text x="69.138" y="1.67" class="g">be</text><text x="72.144" y="1.67" class="g">present</text><text x="80.16" y="1.67" class="g">and</text><text x="84.168" y="1.67" class="g">non-empty</text><text x="94.188" y="1.67" class="g">string.</text></symbol><symbol id="11"><text x="1.002" y="1.67" class="g">42:10</text><text x="8.016" y="1.67" class="i">warning</text><text x="17.034" y="1.67" class="g">operation-description</text><text x="40.08" y="1.67" class="g">Operation</text><text x="50.1" y="1.67" class="g">`description`</text><text x="64.128" y="1.67" class="g">must</text><text x="69.138" y="1.67" class="g">be</text><text x="72.144" y="1.67" class="g">present</text><text x="80.16" y="1.67" class="g">and</text><text x="84.168" y="1.67" class="g">non-empty</text><text x="94.188" y="1.67" class="g">string.</text></symbol><symbol id="12"><text x="2.004" y="1.67" class="g">57:9</text><text x="8.016" y="1.67" class="i">warning</text><text x="17.034" y="1.67" class="g">operation-description</text><text x="40.08" y="1.67" class="g">Operation</text><text x="50.1" y="1.67" class="g">`description`</text><text x="64.128" y="1.67" class="g">must</text><text x="69.138" y="1.67" class="g">be</text><text x="72.144" y="1.67" class="g">present</text><text x="80.16" y="1.67" class="g">and</text><text x="84.168" y="1.67" class="g">non-empty</text><text x="94.188" y="1.67" class="g">string.</text></symbol><symbol id="13"><text y="1.67" class="j">✖</text><text x="2.004" y="1.67" class="j">5</text><text x="4.008" y="1.67" class="j">problems</text><text x="13.026" y="1.67" class="j">(0</text><text x="16.032" y="1.67" class="j">errors,</text><text x="24.048" y="1.67" class="j">5</text><text x="26.052" y="1.67" class="j">warnings,</text><text x="36.072" y="1.67" class="j">0</text><text x="38.076" y="1.67" class="j">infos)</text></symbol><symbol id="14"><path class="g" d="M0 0h1v2.171H0z"/><text y="1.67" fill="#282d35" font-weight="700">%</text></symbol><symbol id="15"><text y="1.67" fill="#71bef2" font-weight="700">~</text></symbol><symbol id="16"><text x="1.002" y="1.67" class="m">⍉</text></symbol><symbol id="17"><text y="1.67" class="g">spectral</text><text x="9.018" y="1.67" class="g">lint</text><text x="14.028" y="1.67" class="g">petstore.yaml</text></symbol><symbol id="18"><text y="1.67" class="g">spectral</text><text x="9.018" y="1.67" class="g">lint</text><text x="14.028" y="1.67" class="g">petstore.yaml</text><text x="28.056" y="1.67" class="g">--format</text></symbol><symbol id="19"><text y="1.67" class="g">spectral</text><text x="9.018" y="1.67" class="g">lint</text><text x="14.028" y="1.67" class="g">petstore.yaml</text><text x="28.056" y="1.67" class="g">--format</text><text x="37.074" y="1.67" class="g">json</text></symbol><symbol id="20"><text x="16.032" y="1.67" class="g">&quot;range&quot;:</text><text x="25.05" y="1.67" class="g">{</text></symbol><symbol id="21"><text x="24.048" y="1.67" class="g">&quot;start&quot;:</text><text x="33.066" y="1.67" class="g">{</text></symbol><symbol id="22"><text x="24.048" y="1.67" class="g">},</text></symbol><symbol id="23"><text x="24.048" y="1.67" class="g">&quot;end&quot;:</text><text x="31.062" y="1.67" class="g">{</text></symbol><symbol id="24"><text x="24.048" y="1.67" class="g">}</text></symbol><symbol id="25"><text x="16.032" y="1.67" class="g">},</text></symbol><symbol id="26"><text x="16.032" y="1.67" class="g">&quot;source&quot;:</text><text x="26.052" y="1.67" class="g">&quot;petstore.yaml&quot;</text></symbol><symbol id="27"><text x="8.016" y="1.67" class="g">},</text></symbol><symbol id="28"><text x="8.016" y="1.67" class="g">{</text></symbol><symbol id="29"><text x="16.032" y="1.67" class="g">&quot;code&quot;:</text><text x="24.048" y="1.67" class="g">&quot;operation-description&quot;,</text></symbol><symbol id="30"><text x="16.032" y="1.67" class="g">&quot;path&quot;:</text><text x="24.048" y="1.67" class="g">[</text></symbol><symbol id="31"><text x="24.048" y="1.67" class="g">&quot;paths&quot;,</text></symbol><symbol id="32"><text x="24.048" y="1.67" class="g">&quot;get&quot;,</text></symbol><symbol id="33"><text x="24.048" y="1.67" class="g">&quot;description&quot;</text></symbol><symbol id="34"><text x="16.032" y="1.67" class="g">],</text></symbol><symbol id="35"><text x="32.064" y="1.67" class="g">&quot;character&quot;:</text><text x="45.09" y="1.67" class="g">50</text></symbol><symbol id="36"><text x="24.048" y="1.67" class="g">&quot;/pets/{petId}&quot;,</text></symbol><symbol id="37"><text x="16.032" y="1.67" class="g">&quot;message&quot;:</text><text x="27.054" y="1.67" class="g">&quot;Operation</text><text x="38.076" y="1.67" class="g">`description`</text><text x="52.104" y="1.67" class="g">must</text><text x="57.114" y="1.67" class="g">be</text><text x="60.12" y="1.67" class="g">present</text><text x="68.136" y="1.67" class="g">and</text><text x="72.144" y="1.67" class="g">non-empty</text><text x="82.164" y="1.67" class="g">string.&quot;,</text></symbol><symbol id="38"><text x="16.032" y="1.67" class="g">&quot;severity&quot;:</text><text x="28.056" y="1.67" class="g">1,</text></symbol><symbol id="39"><text x="32.064" y="1.67" class="g">&quot;line&quot;:</text><text x="40.08" y="1.67" class="g">56,</text></symbol><symbol id="40"><text x="32.064" y="1.67" class="g">&quot;character&quot;:</text><text x="45.09" y="1.67" class="g">8</text></symbol><symbol id="41"><text x="32.064" y="1.67" class="g">&quot;line&quot;:</text><text x="40.08" y="1.67" class="g">80,</text></symbol><symbol id="42"><text x="8.016" y="1.67" class="g">}</text></symbol><symbol id="43"><text y="1.67" class="g">]</text></symbol><symbol id="44"><text y="1.67" class="g">exit</text></symbol><symbol id="a"><path fill="transparent" d="M0 0h120v21H0z"/></symbol><symbol id="b"><path fill="#6f7683" d="M0 0h1.102v2.171H0z"/></symbol></defs><path class="a" d="M0 0h120v43.42H0z"/><g style="animation-duration:20.906586s;animation-iteration-count:infinite;animation-name:p;animation-timing-function:steps(1,end)"><svg width="7560"><svg><use xlink:href="#a"/><use xlink:href="#b" x="-.004"/></svg><svg x="120"><use xlink:href="#a"/><use xlink:href="#b" x="1.996"/><use xlink:href="#1"/></svg><svg x="240"><use xlink:href="#a"/><use xlink:href="#b" x="1.996"/><use xlink:href="#1"/></svg><svg x="360"><use xlink:href="#a"/><use xlink:href="#b" x="2.996"/><text y="1.67" class="f">▶</text><text x="2.004" y="1.67" class="f">s</text></svg><svg x="480"><use xlink:href="#a"/><use xlink:href="#b" x="3.996"/><text y="1.67" class="f">▶</text><text x="2.004" y="1.67" class="f">sp</text></svg><svg x="600"><use xlink:href="#a"/><use xlink:href="#b" x="4.996"/><text y="1.67" class="f">▶</text><text x="2.004" y="1.67" class="f">spe</text></svg><svg x="720"><use xlink:href="#a"/><use xlink:href="#b" x="5.996"/><text y="1.67" class="f">▶</text><text x="2.004" y="1.67" class="f">spec</text></svg><svg x="840"><use xlink:href="#a"/><use xlink:href="#b" x="6.996"/><text y="1.67" class="f">▶</text><text x="2.004" y="1.67" class="f">spect</text></svg><svg x="960"><use xlink:href="#a"/><use xlink:href="#b" x="7.996"/><text y="1.67" class="f">▶</text><text x="2.004" y="1.67" class="f">spectr</text></svg><svg x="1080"><use xlink:href="#a"/><use xlink:href="#b" x="8.996"/><text y="1.67" class="f">▶</text><text x="2.004" y="1.67" class="f">spectra</text></svg><svg x="1200"><use xlink:href="#a"/><use xlink:href="#b" x="9.996"/><use xlink:href="#2"/></svg><svg x="1320"><use xlink:href="#a"/><use xlink:href="#b" x="10.996"/><use xlink:href="#2"/></svg><svg x="1440"><use xlink:href="#a"/><use xlink:href="#b" x="11.996"/><text y="1.67" class="f">▶</text><text x="2.004" y="1.67" class="f">spectral</text><text x="11.022" y="1.67" class="f">l</text></svg><svg x="1560"><use xlink:href="#a"/><use xlink:href="#b" x="12.996"/><text y="1.67" class="f">▶</text><text x="2.004" y="1.67" class="f">spectral</text><text x="11.022" y="1.67" class="f">li</text></svg><svg x="1680"><use xlink:href="#a"/><use xlink:href="#b" x="13.996"/><text y="1.67" class="f">▶</text><text x="2.004" y="1.67" class="f">spectral</text><text x="11.022" y="1.67" class="f">lin</text></svg><svg x="1800"><use xlink:href="#a"/><use xlink:href="#b" x="14.996"/><use xlink:href="#3"/></svg><svg x="1920"><use xlink:href="#a"/><use xlink:href="#b" x="15.996"/><use xlink:href="#3"/></svg><svg x="2040"><use xlink:href="#a"/><use xlink:href="#b" x="16.996"/><text y="1.67" class="f">▶</text><text x="2.004" y="1.67" class="f">spectral</text><text x="11.022" y="1.67" class="f">lint</text><text x="16.032" y="1.67" class="f">p</text></svg><svg x="2160"><use xlink:href="#a"/><use xlink:href="#b" x="17.996"/><text y="1.67" class="f">▶</text><text x="2.004" y="1.67" class="f">spectral</text><text x="11.022" y="1.67" class="f">lint</text><text x="16.032" y="1.67" class="f">pe</text></svg><svg x="2280"><use xlink:href="#a"/><use xlink:href="#b" x="18.996"/><text y="1.67" class="f">▶</text><text x="2.004" y="1.67" class="f">spectral</text><text x="11.022" y="1.67" class="f">lint</text><text x="16.032" y="1.67" class="f">pet</text></svg><svg x="2400"><use xlink:href="#a"/><use xlink:href="#b" x="29.996"/><use xlink:href="#4"/></svg><svg x="2520"><use xlink:href="#a"/><use xlink:href="#b" x="-.004" y="2.146"/><use xlink:href="#4"/></svg><svg x="2640"><use xlink:href="#a"/><use xlink:href="#b" x="-.004" y="2.146"/><use xlink:href="#4"/></svg><svg x="2760"><use xlink:href="#a"/><use xlink:href="#b" x="-.004" y="4.317"/><use xlink:href="#4"/><use xlink:href="#5" y="2.171"/></svg><svg x="2880"><use xlink:href="#a"/><use xlink:href="#b" x="-.004" y="6.488"/><use xlink:href="#4"/><use xlink:href="#5" y="2.171"/><use xlink:href="#6" y="4.342"/></svg><svg x="3000"><use xlink:href="#a"/><use xlink:href="#b" x="-.004" y="28.198"/><use xlink:href="#4"/><use xlink:href="#5" y="2.171"/><use xlink:href="#6" y="4.342"/><use xlink:href="#7" y="8.684"/><use xlink:href="#8" y="10.855"/><use xlink:href="#9" y="13.026"/><use xlink:href="#10" y="15.197"/><use xlink:href="#11" y="17.368"/><use xlink:href="#12" y="19.539"/><use xlink:href="#13" y="23.881"/></svg><svg x="3120"><use xlink:href="#a"/><use xlink:href="#b" x="-.004" y="30.369"/><use xlink:href="#4"/><use xlink:href="#5" y="2.171"/><use xlink:href="#6" y="4.342"/><use xlink:href="#7" y="8.684"/><use xlink:href="#8" y="10.855"/><use xlink:href="#9" y="13.026"/><use xlink:href="#10" y="15.197"/><use xlink:href="#11" y="17.368"/><use xlink:href="#12" y="19.539"/><use xlink:href="#13" y="23.881"/><use xlink:href="#14" y="28.223"/></svg><svg x="3240"><use xlink:href="#a"/><use xlink:href="#b" x="-.004" y="30.369"/><use xlink:href="#4"/><use xlink:href="#5" y="2.171"/><use xlink:href="#6" y="4.342"/><use xlink:href="#7" y="8.684"/><use xlink:href="#8" y="10.855"/><use xlink:href="#9" y="13.026"/><use xlink:href="#10" y="15.197"/><use xlink:href="#11" y="17.368"/><use xlink:href="#12" y="19.539"/><use xlink:href="#13" y="23.881"/><use xlink:href="#14" y="28.223"/></svg><svg x="3360"><use xlink:href="#a"/><use xlink:href="#b" x="-.004" y="36.882"/><use xlink:href="#4"/><use xlink:href="#5" y="2.171"/><use xlink:href="#6" y="4.342"/><use xlink:href="#7" y="8.684"/><use xlink:href="#8" y="10.855"/><use xlink:href="#9" y="13.026"/><use xlink:href="#10" y="15.197"/><use xlink:href="#11" y="17.368"/><use xlink:href="#12" y="19.539"/><use xlink:href="#13" y="23.881"/><use xlink:href="#14" y="28.223"/><use xlink:href="#15" y="32.565"/><use xlink:href="#16" y="34.736"/></svg><svg x="3480"><use xlink:href="#a"/><use xlink:href="#b" x="-.004" y="36.882"/><use xlink:href="#4"/><use xlink:href="#5" y="2.171"/><use xlink:href="#6" y="4.342"/><use xlink:href="#7" y="8.684"/><use xlink:href="#8" y="10.855"/><use xlink:href="#9" y="13.026"/><use xlink:href="#10" y="15.197"/><use xlink:href="#11" y="17.368"/><use xlink:href="#12" y="19.539"/><use xlink:href="#13" y="23.881"/><use xlink:href="#14" y="28.223"/><use xlink:href="#15" y="32.565"/><use xlink:href="#16" y="34.736"/></svg><svg x="3600"><use xlink:href="#a"/><use xlink:href="#b" x="26.996" y="36.882"/><use xlink:href="#4"/><use xlink:href="#5" y="2.171"/><use xlink:href="#6" y="4.342"/><use xlink:href="#7" y="8.684"/><use xlink:href="#8" y="10.855"/><use xlink:href="#9" y="13.026"/><use xlink:href="#10" y="15.197"/><use xlink:href="#11" y="17.368"/><use xlink:href="#12" y="19.539"/><use xlink:href="#13" y="23.881"/><use xlink:href="#14" y="28.223"/><use xlink:href="#15" y="32.565"/><use xlink:href="#16" y="34.736"/><use xlink:href="#17" y="36.907"/></svg><svg x="3720"><use xlink:href="#a"/><use xlink:href="#b" x="27.996" y="36.882"/><use xlink:href="#4"/><use xlink:href="#5" y="2.171"/><use xlink:href="#6" y="4.342"/><use xlink:href="#7" y="8.684"/><use xlink:href="#8" y="10.855"/><use xlink:href="#9" y="13.026"/><use xlink:href="#10" y="15.197"/><use xlink:href="#11" y="17.368"/><use xlink:href="#12" y="19.539"/><use xlink:href="#13" y="23.881"/><use xlink:href="#14" y="28.223"/><use xlink:href="#15" y="32.565"/><use xlink:href="#16" y="34.736"/><use xlink:href="#17" y="36.907"/></svg><svg x="3840"><use xlink:href="#a"/><use xlink:href="#b" x="28.996" y="36.882"/><use xlink:href="#4"/><use xlink:href="#5" y="2.171"/><use xlink:href="#6" y="4.342"/><use xlink:href="#7" y="8.684"/><use xlink:href="#8" y="10.855"/><use xlink:href="#9" y="13.026"/><use xlink:href="#10" y="15.197"/><use xlink:href="#11" y="17.368"/><use xlink:href="#12" y="19.539"/><use xlink:href="#13" y="23.881"/><use xlink:href="#14" y="28.223"/><use xlink:href="#15" y="32.565"/><use xlink:href="#16" y="34.736"/><text y="38.577" class="g">spectral</text><text x="9.018" y="38.577" class="g">lint</text><text x="14.028" y="38.577" class="g">petstore.yaml</text><text x="28.056" y="38.577" class="g">-</text></svg><svg x="3960"><use xlink:href="#a"/><use xlink:href="#b" x="29.996" y="36.882"/><use xlink:href="#4"/><use xlink:href="#5" y="2.171"/><use xlink:href="#6" y="4.342"/><use xlink:href="#7" y="8.684"/><use xlink:href="#8" y="10.855"/><use xlink:href="#9" y="13.026"/><use xlink:href="#10" y="15.197"/><use xlink:href="#11" y="17.368"/><use xlink:href="#12" y="19.539"/><use xlink:href="#13" y="23.881"/><use xlink:href="#14" y="28.223"/><use xlink:href="#15" y="32.565"/><use xlink:href="#16" y="34.736"/><text y="38.577" class="g">spectral</text><text x="9.018" y="38.577" class="g">lint</text><text x="14.028" y="38.577" class="g">petstore.yaml</text><text x="28.056" y="38.577" class="g">--</text></svg><svg x="4080"><use xlink:href="#a"/><use xlink:href="#b" x="30.996" y="36.882"/><use xlink:href="#4"/><use xlink:href="#5" y="2.171"/><use xlink:href="#6" y="4.342"/><use xlink:href="#7" y="8.684"/><use xlink:href="#8" y="10.855"/><use xlink:href="#9" y="13.026"/><use xlink:href="#10" y="15.197"/><use xlink:href="#11" y="17.368"/><use xlink:href="#12" y="19.539"/><use xlink:href="#13" y="23.881"/><use xlink:href="#14" y="28.223"/><use xlink:href="#15" y="32.565"/><use xlink:href="#16" y="34.736"/><text y="38.577" class="g">spectral</text><text x="9.018" y="38.577" class="g">lint</text><text x="14.028" y="38.577" class="g">petstore.yaml</text><text x="28.056" y="38.577" class="g">--f</text></svg><svg x="4200"><use xlink:href="#a"/><use xlink:href="#b" x="31.996" y="36.882"/><use xlink:href="#4"/><use xlink:href="#5" y="2.171"/><use xlink:href="#6" y="4.342"/><use xlink:href="#7" y="8.684"/><use xlink:href="#8" y="10.855"/><use xlink:href="#9" y="13.026"/><use xlink:href="#10" y="15.197"/><use xlink:href="#11" y="17.368"/><use xlink:href="#12" y="19.539"/><use xlink:href="#13" y="23.881"/><use xlink:href="#14" y="28.223"/><use xlink:href="#15" y="32.565"/><use xlink:href="#16" y="34.736"/><text y="38.577" class="g">spectral</text><text x="9.018" y="38.577" class="g">lint</text><text x="14.028" y="38.577" class="g">petstore.yaml</text><text x="28.056" y="38.577" class="g">--fo</text></svg><svg x="4320"><use xlink:href="#a"/><use xlink:href="#b" x="32.996" y="36.882"/><use xlink:href="#4"/><use xlink:href="#5" y="2.171"/><use xlink:href="#6" y="4.342"/><use xlink:href="#7" y="8.684"/><use xlink:href="#8" y="10.855"/><use xlink:href="#9" y="13.026"/><use xlink:href="#10" y="15.197"/><use xlink:href="#11" y="17.368"/><use xlink:href="#12" y="19.539"/><use xlink:href="#13" y="23.881"/><use xlink:href="#14" y="28.223"/><use xlink:href="#15" y="32.565"/><use xlink:href="#16" y="34.736"/><text y="38.577" class="g">spectral</text><text x="9.018" y="38.577" class="g">lint</text><text x="14.028" y="38.577" class="g">petstore.yaml</text><text x="28.056" y="38.577" class="g">--for</text></svg><svg x="4440"><use xlink:href="#a"/><use xlink:href="#b" x="33.996" y="36.882"/><use xlink:href="#4"/><use xlink:href="#5" y="2.171"/><use xlink:href="#6" y="4.342"/><use xlink:href="#7" y="8.684"/><use xlink:href="#8" y="10.855"/><use xlink:href="#9" y="13.026"/><use xlink:href="#10" y="15.197"/><use xlink:href="#11" y="17.368"/><use xlink:href="#12" y="19.539"/><use xlink:href="#13" y="23.881"/><use xlink:href="#14" y="28.223"/><use xlink:href="#15" y="32.565"/><use xlink:href="#16" y="34.736"/><text y="38.577" class="g">spectral</text><text x="9.018" y="38.577" class="g">lint</text><text x="14.028" y="38.577" class="g">petstore.yaml</text><text x="28.056" y="38.577" class="g">--form</text></svg><svg x="4560"><use xlink:href="#a"/><use xlink:href="#b" x="34.996" y="36.882"/><use xlink:href="#4"/><use xlink:href="#5" y="2.171"/><use xlink:href="#6" y="4.342"/><use xlink:href="#7" y="8.684"/><use xlink:href="#8" y="10.855"/><use xlink:href="#9" y="13.026"/><use xlink:href="#10" y="15.197"/><use xlink:href="#11" y="17.368"/><use xlink:href="#12" y="19.539"/><use xlink:href="#13" y="23.881"/><use xlink:href="#14" y="28.223"/><use xlink:href="#15" y="32.565"/><use xlink:href="#16" y="34.736"/><text y="38.577" class="g">spectral</text><text x="9.018" y="38.577" class="g">lint</text><text x="14.028" y="38.577" class="g">petstore.yaml</text><text x="28.056" y="38.577" class="g">--forma</text></svg><svg x="4680"><use xlink:href="#a"/><use xlink:href="#b" x="35.996" y="36.882"/><use xlink:href="#4"/><use xlink:href="#5" y="2.171"/><use xlink:href="#6" y="4.342"/><use xlink:href="#7" y="8.684"/><use xlink:href="#8" y="10.855"/><use xlink:href="#9" y="13.026"/><use xlink:href="#10" y="15.197"/><use xlink:href="#11" y="17.368"/><use xlink:href="#12" y="19.539"/><use xlink:href="#13" y="23.881"/><use xlink:href="#14" y="28.223"/><use xlink:href="#15" y="32.565"/><use xlink:href="#16" y="34.736"/><use xlink:href="#18" y="36.907"/></svg><svg x="4800"><use xlink:href="#a"/><use xlink:href="#b" x="36.996" y="36.882"/><use xlink:href="#4"/><use xlink:href="#5" y="2.171"/><use xlink:href="#6" y="4.342"/><use xlink:href="#7" y="8.684"/><use xlink:href="#8" y="10.855"/><use xlink:href="#9" y="13.026"/><use xlink:href="#10" y="15.197"/><use xlink:href="#11" y="17.368"/><use xlink:href="#12" y="19.539"/><use xlink:href="#13" y="23.881"/><use xlink:href="#14" y="28.223"/><use xlink:href="#15" y="32.565"/><use xlink:href="#16" y="34.736"/><use xlink:href="#18" y="36.907"/></svg><svg x="4920"><use xlink:href="#a"/><use xlink:href="#b" x="37.996" y="36.882"/><use xlink:href="#4"/><use xlink:href="#5" y="2.171"/><use xlink:href="#6" y="4.342"/><use xlink:href="#7" y="8.684"/><use xlink:href="#8" y="10.855"/><use xlink:href="#9" y="13.026"/><use xlink:href="#10" y="15.197"/><use xlink:href="#11" y="17.368"/><use xlink:href="#12" y="19.539"/><use xlink:href="#13" y="23.881"/><use xlink:href="#14" y="28.223"/><use xlink:href="#15" y="32.565"/><use xlink:href="#16" y="34.736"/><text y="38.577" class="g">spectral</text><text x="9.018" y="38.577" class="g">lint</text><text x="14.028" y="38.577" class="g">petstore.yaml</text><text x="28.056" y="38.577" class="g">--format</text><text x="37.074" y="38.577" class="g">j</text></svg><svg x="5040"><use xlink:href="#a"/><use xlink:href="#b" x="38.996" y="36.882"/><use xlink:href="#4"/><use xlink:href="#5" y="2.171"/><use xlink:href="#6" y="4.342"/><use xlink:href="#7" y="8.684"/><use xlink:href="#8" y="10.855"/><use xlink:href="#9" y="13.026"/><use xlink:href="#10" y="15.197"/><use xlink:href="#11" y="17.368"/><use xlink:href="#12" y="19.539"/><use xlink:href="#13" y="23.881"/><use xlink:href="#14" y="28.223"/><use xlink:href="#15" y="32.565"/><use xlink:href="#16" y="34.736"/><text y="38.577" class="g">spectral</text><text x="9.018" y="38.577" class="g">lint</text><text x="14.028" y="38.577" class="g">petstore.yaml</text><text x="28.056" y="38.577" class="g">--format</text><text x="37.074" y="38.577" class="g">js</text></svg><svg x="5160"><use xlink:href="#a"/><use xlink:href="#b" x="39.996" y="36.882"/><use xlink:href="#4"/><use xlink:href="#5" y="2.171"/><use xlink:href="#6" y="4.342"/><use xlink:href="#7" y="8.684"/><use xlink:href="#8" y="10.855"/><use xlink:href="#9" y="13.026"/><use xlink:href="#10" y="15.197"/><use xlink:href="#11" y="17.368"/><use xlink:href="#12" y="19.539"/><use xlink:href="#13" y="23.881"/><use xlink:href="#14" y="28.223"/><use xlink:href="#15" y="32.565"/><use xlink:href="#16" y="34.736"/><text y="38.577" class="g">spectral</text><text x="9.018" y="38.577" class="g">lint</text><text x="14.028" y="38.577" class="g">petstore.yaml</text><text x="28.056" y="38.577" class="g">--format</text><text x="37.074" y="38.577" class="g">jso</text></svg><svg x="5280"><use xlink:href="#a"/><use xlink:href="#b" x="40.996" y="36.882"/><use xlink:href="#4"/><use xlink:href="#5" y="2.171"/><use xlink:href="#6" y="4.342"/><use xlink:href="#7" y="8.684"/><use xlink:href="#8" y="10.855"/><use xlink:href="#9" y="13.026"/><use xlink:href="#10" y="15.197"/><use xlink:href="#11" y="17.368"/><use xlink:href="#12" y="19.539"/><use xlink:href="#13" y="23.881"/><use xlink:href="#14" y="28.223"/><use xlink:href="#15" y="32.565"/><use xlink:href="#16" y="34.736"/><use xlink:href="#19" y="36.907"/></svg><svg x="5400"><use xlink:href="#a"/><use xlink:href="#b" x="40.996" y="36.882"/><use xlink:href="#4"/><use xlink:href="#5" y="2.171"/><use xlink:href="#6" y="4.342"/><use xlink:href="#7" y="8.684"/><use xlink:href="#8" y="10.855"/><use xlink:href="#9" y="13.026"/><use xlink:href="#10" y="15.197"/><use xlink:href="#11" y="17.368"/><use xlink:href="#12" y="19.539"/><use xlink:href="#13" y="23.881"/><use xlink:href="#14" y="28.223"/><use xlink:href="#15" y="32.565"/><use xlink:href="#16" y="34.736"/><use xlink:href="#19" y="36.907"/></svg><svg x="5520"><use xlink:href="#a"/><use xlink:href="#b" x="-.004" y="39.053"/><use xlink:href="#4"/><use xlink:href="#5" y="2.171"/><use xlink:href="#6" y="4.342"/><use xlink:href="#7" y="8.684"/><use xlink:href="#8" y="10.855"/><use xlink:href="#9" y="13.026"/><use xlink:href="#10" y="15.197"/><use xlink:href="#11" y="17.368"/><use xlink:href="#12" y="19.539"/><use xlink:href="#13" y="23.881"/><use xlink:href="#14" y="28.223"/><use xlink:href="#15" y="32.565"/><use xlink:href="#16" y="34.736"/><use xlink:href="#19" y="36.907"/></svg><svg x="5640"><use xlink:href="#a"/><use xlink:href="#b" x="-.004" y="39.053"/><use xlink:href="#4"/><use xlink:href="#5" y="2.171"/><use xlink:href="#6" y="4.342"/><use xlink:href="#7" y="8.684"/><use xlink:href="#8" y="10.855"/><use xlink:href="#9" y="13.026"/><use xlink:href="#10" y="15.197"/><use xlink:href="#11" y="17.368"/><use xlink:href="#12" y="19.539"/><use xlink:href="#13" y="23.881"/><use xlink:href="#14" y="28.223"/><use xlink:href="#15" y="32.565"/><use xlink:href="#16" y="34.736"/><use xlink:href="#19" y="36.907"/></svg><svg x="5760"><use xlink:href="#a"/><use xlink:href="#b" x="-.004" y="41.224"/><use xlink:href="#4"/><use xlink:href="#5" y="2.171"/><use xlink:href="#6" y="4.342"/><use xlink:href="#7" y="8.684"/><use xlink:href="#8" y="10.855"/><use xlink:href="#9" y="13.026"/><use xlink:href="#10" y="15.197"/><use xlink:href="#11" y="17.368"/><use xlink:href="#12" y="19.539"/><use xlink:href="#13" y="23.881"/><use xlink:href="#14" y="28.223"/><use xlink:href="#15" y="32.565"/><use xlink:href="#16" y="34.736"/><use xlink:href="#19" y="36.907"/><use xlink:href="#5" y="39.078"/></svg><svg x="5880"><use xlink:href="#a"/><use xlink:href="#b" x="-.004" y="43.395"/><use xlink:href="#4"/><use xlink:href="#5" y="2.171"/><use xlink:href="#6" y="4.342"/><use xlink:href="#7" y="8.684"/><use xlink:href="#8" y="10.855"/><use xlink:href="#9" y="13.026"/><use xlink:href="#10" y="15.197"/><use xlink:href="#11" y="17.368"/><use xlink:href="#12" y="19.539"/><use xlink:href="#13" y="23.881"/><use xlink:href="#14" y="28.223"/><use xlink:href="#15" y="32.565"/><use xlink:href="#16" y="34.736"/><use xlink:href="#19" y="36.907"/><use xlink:href="#5" y="39.078"/><use xlink:href="#6" y="41.249"/></svg><svg x="6000"><use xlink:href="#a"/><use xlink:href="#b" x="86.996" y="43.395"/><use xlink:href="#20"/><use xlink:href="#21" y="2.171"/><text x="32.064" y="6.012" class="g">&quot;line&quot;:</text><text x="40.08" y="6.012" class="g">1,</text><text x="32.064" y="8.183" class="g">&quot;character&quot;:</text><text x="45.09" y="8.183" class="g">5</text><use xlink:href="#22" y="8.684"/><use xlink:href="#23" y="10.855"/><text x="32.064" y="14.696" class="g">&quot;line&quot;:</text><text x="40.08" y="14.696" class="g">5,</text><text x="32.064" y="16.867" class="g">&quot;character&quot;:</text><text x="45.09" y="16.867" class="g">13</text><use xlink:href="#24" y="17.368"/><use xlink:href="#25" y="19.539"/><use xlink:href="#26" y="21.71"/><use xlink:href="#27" y="23.881"/><use xlink:href="#28" y="26.052"/><use xlink:href="#29" y="28.223"/><use xlink:href="#30" y="30.394"/><use xlink:href="#31" y="32.565"/><text x="24.048" y="36.406" class="g">&quot;/pets&quot;,</text><use xlink:href="#32" y="36.907"/><use xlink:href="#33" y="39.078"/><use xlink:href="#34" y="41.249"/><text x="16.032" y="45.09" class="g">&quot;message&quot;:</text><text x="27.054" y="45.09" class="g">&quot;Operation</text><text x="38.076" y="45.09" class="g">`description`</text><text x="52.104" y="45.09" class="g">must</text><text x="57.114" y="45.09" class="g">be</text><text x="60.12" y="45.09" class="g">present</text><text x="68.136" y="45.09" class="g">and</text><text x="72.144" y="45.09" class="g">non-empty</text><text x="82.164" y="45.09" class="g">strin</text></svg><svg x="6120"><use xlink:href="#a"/><use xlink:href="#b" x="23.996" y="43.395"/><use xlink:href="#21"/><text x="32.064" y="3.841" class="g">&quot;line&quot;:</text><text x="40.08" y="3.841" class="g">41,</text><text x="32.064" y="6.012" class="g">&quot;character&quot;:</text><text x="45.09" y="6.012" class="g">9</text><use xlink:href="#22" y="6.513"/><use xlink:href="#23" y="8.684"/><text x="32.064" y="12.525" class="g">&quot;line&quot;:</text><text x="40.08" y="12.525" class="g">54,</text><use xlink:href="#35" y="13.026"/><use xlink:href="#24" y="15.197"/><use xlink:href="#25" y="17.368"/><use xlink:href="#26" y="19.539"/><use xlink:href="#27" y="21.71"/><use xlink:href="#28" y="23.881"/><use xlink:href="#29" y="26.052"/><use xlink:href="#30" y="28.223"/><use xlink:href="#31" y="30.394"/><use xlink:href="#36" y="32.565"/><use xlink:href="#32" y="34.736"/><use xlink:href="#33" y="36.907"/><use xlink:href="#34" y="39.078"/><use xlink:href="#37" y="41.249"/><text x="16.032" y="45.09" class="g">&quot;severit</text></svg><svg x="6240"><use xlink:href="#a"/><use xlink:href="#b" x="-.004" y="43.395"/><use xlink:href="#31"/><use xlink:href="#36" y="2.171"/><use xlink:href="#32" y="4.342"/><use xlink:href="#33" y="6.513"/><use xlink:href="#34" y="8.684"/><use xlink:href="#37" y="10.855"/><use xlink:href="#38" y="13.026"/><use xlink:href="#20" y="15.197"/><use xlink:href="#21" y="17.368"/><use xlink:href="#39" y="19.539"/><use xlink:href="#40" y="21.71"/><use xlink:href="#22" y="23.881"/><use xlink:href="#23" y="26.052"/><use xlink:href="#41" y="28.223"/><use xlink:href="#35" y="30.394"/><use xlink:href="#24" y="32.565"/><use xlink:href="#25" y="34.736"/><use xlink:href="#26" y="36.907"/><use xlink:href="#42" y="39.078"/><use xlink:href="#43" y="41.249"/></svg><svg x="6360"><use xlink:href="#a"/><use xlink:href="#b" x="-.004" y="43.395"/><use xlink:href="#36"/><use xlink:href="#32" y="2.171"/><use xlink:href="#33" y="4.342"/><use xlink:href="#34" y="6.513"/><use xlink:href="#37" y="8.684"/><use xlink:href="#38" y="10.855"/><use xlink:href="#20" y="13.026"/><use xlink:href="#21" y="15.197"/><use xlink:href="#39" y="17.368"/><use xlink:href="#40" y="19.539"/><use xlink:href="#22" y="21.71"/><use xlink:href="#23" y="23.881"/><use xlink:href="#41" y="26.052"/><use xlink:href="#35" y="28.223"/><use xlink:href="#24" y="30.394"/><use xlink:href="#25" y="32.565"/><use xlink:href="#26" y="34.736"/><use xlink:href="#42" y="36.907"/><use xlink:href="#43" y="39.078"/><use xlink:href="#14" y="41.249"/></svg><svg x="6480"><use xlink:href="#a"/><use xlink:href="#b" x="-.004" y="43.395"/><use xlink:href="#36"/><use xlink:href="#32" y="2.171"/><use xlink:href="#33" y="4.342"/><use xlink:href="#34" y="6.513"/><use xlink:href="#37" y="8.684"/><use xlink:href="#38" y="10.855"/><use xlink:href="#20" y="13.026"/><use xlink:href="#21" y="15.197"/><use xlink:href="#39" y="17.368"/><use xlink:href="#40" y="19.539"/><use xlink:href="#22" y="21.71"/><use xlink:href="#23" y="23.881"/><use xlink:href="#41" y="26.052"/><use xlink:href="#35" y="28.223"/><use xlink:href="#24" y="30.394"/><use xlink:href="#25" y="32.565"/><use xlink:href="#26" y="34.736"/><use xlink:href="#42" y="36.907"/><use xlink:href="#43" y="39.078"/><use xlink:href="#14" y="41.249"/></svg><svg x="6600"><use xlink:href="#a"/><use xlink:href="#b" x="-.004" y="43.395"/><use xlink:href="#33"/><use xlink:href="#34" y="2.171"/><use xlink:href="#37" y="4.342"/><use xlink:href="#38" y="6.513"/><use xlink:href="#20" y="8.684"/><use xlink:href="#21" y="10.855"/><use xlink:href="#39" y="13.026"/><use xlink:href="#40" y="15.197"/><use xlink:href="#22" y="17.368"/><use xlink:href="#23" y="19.539"/><use xlink:href="#41" y="21.71"/><use xlink:href="#35" y="23.881"/><use xlink:href="#24" y="26.052"/><use xlink:href="#25" y="28.223"/><use xlink:href="#26" y="30.394"/><use xlink:href="#42" y="32.565"/><use xlink:href="#43" y="34.736"/><use xlink:href="#14" y="36.907"/><use xlink:href="#15" y="41.249"/><use xlink:href="#16" y="43.42"/></svg><svg x="6720"><use xlink:href="#a"/><use xlink:href="#b" x="-.004" y="43.395"/><use xlink:href="#33"/><use xlink:href="#34" y="2.171"/><use xlink:href="#37" y="4.342"/><use xlink:href="#38" y="6.513"/><use xlink:href="#20" y="8.684"/><use xlink:href="#21" y="10.855"/><use xlink:href="#39" y="13.026"/><use xlink:href="#40" y="15.197"/><use xlink:href="#22" y="17.368"/><use xlink:href="#23" y="19.539"/><use xlink:href="#41" y="21.71"/><use xlink:href="#35" y="23.881"/><use xlink:href="#24" y="26.052"/><use xlink:href="#25" y="28.223"/><use xlink:href="#26" y="30.394"/><use xlink:href="#42" y="32.565"/><use xlink:href="#43" y="34.736"/><use xlink:href="#14" y="36.907"/><use xlink:href="#15" y="41.249"/><use xlink:href="#16" y="43.42"/></svg><svg x="6840"><use xlink:href="#a"/><use xlink:href="#b" x=".996" y="43.395"/><use xlink:href="#33"/><use xlink:href="#34" y="2.171"/><use xlink:href="#37" y="4.342"/><use xlink:href="#38" y="6.513"/><use xlink:href="#20" y="8.684"/><use xlink:href="#21" y="10.855"/><use xlink:href="#39" y="13.026"/><use xlink:href="#40" y="15.197"/><use xlink:href="#22" y="17.368"/><use xlink:href="#23" y="19.539"/><use xlink:href="#41" y="21.71"/><use xlink:href="#35" y="23.881"/><use xlink:href="#24" y="26.052"/><use xlink:href="#25" y="28.223"/><use xlink:href="#26" y="30.394"/><use xlink:href="#42" y="32.565"/><use xlink:href="#43" y="34.736"/><use xlink:href="#14" y="36.907"/><use xlink:href="#15" y="41.249"/><text y="45.09" class="g">e</text><text x="1.002" y="45.09" class="m">⍉</text></svg><svg x="6960"><use xlink:href="#a"/><use xlink:href="#b" x="1.996" y="43.395"/><use xlink:href="#33"/><use xlink:href="#34" y="2.171"/><use xlink:href="#37" y="4.342"/><use xlink:href="#38" y="6.513"/><use xlink:href="#20" y="8.684"/><use xlink:href="#21" y="10.855"/><use xlink:href="#39" y="13.026"/><use xlink:href="#40" y="15.197"/><use xlink:href="#22" y="17.368"/><use xlink:href="#23" y="19.539"/><use xlink:href="#41" y="21.71"/><use xlink:href="#35" y="23.881"/><use xlink:href="#24" y="26.052"/><use xlink:href="#25" y="28.223"/><use xlink:href="#26" y="30.394"/><use xlink:href="#42" y="32.565"/><use xlink:href="#43" y="34.736"/><use xlink:href="#14" y="36.907"/><use xlink:href="#15" y="41.249"/><text y="45.09" class="g">ex</text></svg><svg x="7080"><use xlink:href="#a"/><use xlink:href="#b" x="2.996" y="43.395"/><use xlink:href="#33"/><use xlink:href="#34" y="2.171"/><use xlink:href="#37" y="4.342"/><use xlink:href="#38" y="6.513"/><use xlink:href="#20" y="8.684"/><use xlink:href="#21" y="10.855"/><use xlink:href="#39" y="13.026"/><use xlink:href="#40" y="15.197"/><use xlink:href="#22" y="17.368"/><use xlink:href="#23" y="19.539"/><use xlink:href="#41" y="21.71"/><use xlink:href="#35" y="23.881"/><use xlink:href="#24" y="26.052"/><use xlink:href="#25" y="28.223"/><use xlink:href="#26" y="30.394"/><use xlink:href="#42" y="32.565"/><use xlink:href="#43" y="34.736"/><use xlink:href="#14" y="36.907"/><use xlink:href="#15" y="41.249"/><text y="45.09" class="g">exi</text></svg><svg x="7200"><use xlink:href="#a"/><use xlink:href="#b" x="3.996" y="43.395"/><use xlink:href="#33"/><use xlink:href="#34" y="2.171"/><use xlink:href="#37" y="4.342"/><use xlink:href="#38" y="6.513"/><use xlink:href="#20" y="8.684"/><use xlink:href="#21" y="10.855"/><use xlink:href="#39" y="13.026"/><use xlink:href="#40" y="15.197"/><use xlink:href="#22" y="17.368"/><use xlink:href="#23" y="19.539"/><use xlink:href="#41" y="21.71"/><use xlink:href="#35" y="23.881"/><use xlink:href="#24" y="26.052"/><use xlink:href="#25" y="28.223"/><use xlink:href="#26" y="30.394"/><use xlink:href="#42" y="32.565"/><use xlink:href="#43" y="34.736"/><use xlink:href="#14" y="36.907"/><use xlink:href="#15" y="41.249"/><use xlink:href="#44" y="43.42"/></svg><svg x="7320"><use xlink:href="#a"/><use xlink:href="#b" x="-.004" y="43.395"/><use xlink:href="#34"/><use xlink:href="#37" y="2.171"/><use xlink:href="#38" y="4.342"/><use xlink:href="#20" y="6.513"/><use xlink:href="#21" y="8.684"/><use xlink:href="#39" y="10.855"/><use xlink:href="#40" y="13.026"/><use xlink:href="#22" y="15.197"/><use xlink:href="#23" y="17.368"/><use xlink:href="#41" y="19.539"/><use xlink:href="#35" y="21.71"/><use xlink:href="#24" y="23.881"/><use xlink:href="#25" y="26.052"/><use xlink:href="#26" y="28.223"/><use xlink:href="#42" y="30.394"/><use xlink:href="#43" y="32.565"/><use xlink:href="#14" y="34.736"/><use xlink:href="#15" y="39.078"/><use xlink:href="#44" y="41.249"/></svg><svg x="7440"><use xlink:href="#a"/><use xlink:href="#b" x="-.004" y="43.395"/><use xlink:href="#34"/><use xlink:href="#37" y="2.171"/><use xlink:href="#38" y="4.342"/><use xlink:href="#20" y="6.513"/><use xlink:href="#21" y="8.684"/><use xlink:href="#39" y="10.855"/><use xlink:href="#40" y="13.026"/><use xlink:href="#22" y="15.197"/><use xlink:href="#23" y="17.368"/><use xlink:href="#41" y="19.539"/><use xlink:href="#35" y="21.71"/><use xlink:href="#24" y="23.881"/><use xlink:href="#25" y="26.052"/><use xlink:href="#26" y="28.223"/><use xlink:href="#42" y="30.394"/><use xlink:href="#43" y="32.565"/><use xlink:href="#14" y="34.736"/><use xlink:href="#15" y="39.078"/><use xlink:href="#44" y="41.249"/></svg></svg></g></g></svg></svg>